<svg width="124" height="32" viewBox="0 0 124 32" fill="none" xmlns="http://www.w3.org/2000/svg">
<path d="M28.6839 25.1783C26.7151 27.3477 24.0963 28.8852 21.1829 29.582C18.2695 30.2788 15.2025 30.1012 12.3982 29.0733C10.9575 28.5452 3.00207 29.582 3.00207 29.582C3.00207 29.582 6.32446 24.9939 5.5071 23.8362C3.82619 21.4554 2.95162 18.6374 3.00207 15.7648C3.05252 12.8922 4.02555 10.1039 5.78912 7.77849C7.55268 5.45304 10.0214 3.70298 12.8602 2.76579C15.699 1.82861 18.7705 1.74968 21.6578 2.53973C24.5452 3.32978 27.1085 4.95054 29 7.18207L24.0837 10.9962C23.0103 9.72984 21.5557 8.81012 19.9173 8.36179C18.2788 7.91347 16.5359 7.95826 14.9249 8.49008C13.314 9.02189 11.9131 10.015 10.9124 11.3346C9.9116 12.6542 9.35944 14.2364 9.33081 15.8665C9.30218 17.4966 9.79847 19.0957 10.7523 20.4467C11.3216 21.253 10.7523 23.8362 10.7523 23.8362C10.7523 23.8362 14.0211 23.1834 14.6628 23.4186C16.2541 24.0019 17.9945 24.1027 19.6478 23.7073C21.301 23.3119 22.7871 22.4394 23.9043 21.2083L28.6839 25.1783Z" fill="#29A98B"/>
<path d="M43.398 22.716C42.414 22.716 41.496 22.554 40.644 22.23C39.804 21.894 39.066 21.426 38.43 20.826C37.794 20.226 37.296 19.524 36.936 18.72C36.588 17.904 36.414 17.022 36.414 16.074C36.414 15.114 36.588 14.232 36.936 13.428C37.296 12.624 37.788 11.928 38.412 11.34C39.048 10.752 39.786 10.296 40.626 9.972C41.466 9.636 42.378 9.468 43.362 9.468C44.358 9.468 45.27 9.624 46.098 9.936C46.926 10.248 47.646 10.68 48.258 11.232L45.864 13.644C45.576 13.332 45.222 13.086 44.802 12.906C44.394 12.726 43.914 12.636 43.362 12.636C42.882 12.636 42.438 12.714 42.03 12.87C41.634 13.026 41.292 13.254 41.004 13.554C40.716 13.854 40.488 14.22 40.32 14.652C40.164 15.072 40.086 15.546 40.086 16.074C40.086 16.614 40.164 17.1 40.32 17.532C40.488 17.952 40.716 18.312 41.004 18.612C41.292 18.912 41.634 19.146 42.03 19.314C42.438 19.47 42.882 19.548 43.362 19.548C43.902 19.548 44.382 19.464 44.802 19.296C45.234 19.128 45.606 18.882 45.918 18.558L48.33 20.97C47.694 21.522 46.98 21.954 46.188 22.266C45.396 22.566 44.466 22.716 43.398 22.716ZM55.4039 22.752C54.3959 22.752 53.4659 22.584 52.6139 22.248C51.7739 21.912 51.0359 21.444 50.3999 20.844C49.7759 20.244 49.2899 19.536 48.9419 18.72C48.5939 17.904 48.4199 17.022 48.4199 16.074C48.4199 15.114 48.5879 14.232 48.9239 13.428C49.2719 12.624 49.7579 11.922 50.3819 11.322C51.0059 10.722 51.7379 10.26 52.5779 9.936C53.4299 9.6 54.3599 9.432 55.3679 9.432C56.3759 9.432 57.2999 9.6 58.1399 9.936C58.9919 10.26 59.7299 10.722 60.3539 11.322C60.9779 11.922 61.4579 12.63 61.7939 13.446C62.1419 14.25 62.3159 15.132 62.3159 16.092C62.3159 17.04 62.1419 17.922 61.7939 18.738C61.4579 19.542 60.9779 20.25 60.3539 20.862C59.7299 21.462 58.9979 21.93 58.1579 22.266C57.3179 22.59 56.3999 22.752 55.4039 22.752ZM55.3679 19.584C56.0399 19.584 56.6219 19.44 57.1139 19.152C57.6059 18.864 57.9839 18.456 58.2479 17.928C58.5119 17.4 58.6439 16.782 58.6439 16.074C58.6439 15.546 58.5659 15.072 58.4099 14.652C58.2659 14.22 58.0499 13.854 57.7619 13.554C57.4739 13.242 57.1259 13.008 56.7179 12.852C56.3219 12.684 55.8719 12.6 55.3679 12.6C54.6959 12.6 54.1139 12.744 53.6219 13.032C53.1299 13.308 52.7519 13.71 52.4879 14.238C52.2239 14.754 52.0919 15.366 52.0919 16.074C52.0919 16.614 52.1639 17.1 52.3079 17.532C52.4639 17.964 52.6859 18.336 52.9739 18.648C53.2619 18.948 53.6039 19.182 53.9999 19.35C54.4079 19.506 54.8639 19.584 55.3679 19.584ZM63.7983 22.5V9.684H66.4083L71.1783 16.668H70.0443L74.7963 9.684H77.4063V22.5H73.8423V15.588L74.3643 15.732L71.7543 19.476H69.4503L66.8583 15.732L67.3623 15.588V22.5H63.7983ZM79.5308 22.5V9.684H82.0508L83.1308 12.384V22.5H79.5308ZM88.3508 22.5L80.9168 13.158L82.0508 9.684L89.4848 19.026L88.3508 22.5ZM88.3508 22.5L87.4508 19.656V9.684H91.0508V22.5H88.3508ZM93.1714 22.5V9.684H96.7714V22.5H93.1714ZM105.238 22.716C104.254 22.716 103.336 22.554 102.484 22.23C101.644 21.894 100.906 21.426 100.27 20.826C99.6338 20.226 99.1358 19.524 98.7758 18.72C98.4278 17.904 98.2538 17.022 98.2538 16.074C98.2538 15.114 98.4278 14.232 98.7758 13.428C99.1358 12.624 99.6278 11.928 100.252 11.34C100.888 10.752 101.626 10.296 102.466 9.972C103.306 9.636 104.218 9.468 105.202 9.468C106.198 9.468 107.11 9.624 107.938 9.936C108.766 10.248 109.486 10.68 110.098 11.232L107.704 13.644C107.416 13.332 107.062 13.086 106.642 12.906C106.234 12.726 105.754 12.636 105.202 12.636C104.722 12.636 104.278 12.714 103.87 12.87C103.474 13.026 103.132 13.254 102.844 13.554C102.556 13.854 102.328 14.22 102.16 14.652C102.004 15.072 101.926 15.546 101.926 16.074C101.926 16.614 102.004 17.1 102.16 17.532C102.328 17.952 102.556 18.312 102.844 18.612C103.132 18.912 103.474 19.146 103.87 19.314C104.278 19.47 104.722 19.548 105.202 19.548C105.742 19.548 106.222 19.464 106.642 19.296C107.074 19.128 107.446 18.882 107.758 18.558L110.17 20.97C109.534 21.522 108.82 21.954 108.028 22.266C107.236 22.566 106.306 22.716 105.238 22.716ZM110.147 22.5L115.025 9.684H118.697L123.521 22.5H119.777L116.195 11.61H117.491L113.819 22.5H110.147ZM113.315 20.34V17.532H120.479V20.34H113.315Z" fill="#31363C"/>
</svg>
